<?xml version="1.0" encoding="UTF-8"?>
<svg width="1200pt" height="1200pt" version="1.1" viewBox="0 0 1200 1200" xmlns="http://www.w3.org/2000/svg">
 <path d="m1065.3 129.1c-67.688-53.719-159.74-67.688-240.28-36.469-20.109 7.7812-34.078 25.219-37.312 46.688-3.2812 21.656 4.9688 42.656 22.031 56.203l75.094 59.578-42.422 48.516c-53.578-33.047-113.16-54.656-175.4-63.844v-66.188h7.4062c36.375 0 66-29.625 66-66s-29.625-66-66-66h-148.87c-36.375 0-66 29.625-66 66s29.625 66 66 66h9.4688v65.25c-63.984 8.9062-124.22 31.406-177.42 64.781l-42.422-48.516 75.141-59.578c17.062-13.547 25.312-34.594 22.031-56.203-3.2812-21.422-17.203-38.906-37.312-46.688-80.484-31.219-172.6-17.203-240.28 36.469-3.8438 3.0469-7.5469 6.1875-11.156 9.4219-7.4062 6.6094-8.0625 18-1.4531 25.406 6.5625 7.4062 17.953 8.1094 25.406 1.4531 3.0938-2.7656 6.2812-5.4375 9.5625-8.0625 57.75-45.75 136.26-57.703 204.94-31.125 11.438 4.4062 14.109 14.438 14.719 18.516 1.3125 8.7188-1.9688 17.156-8.8125 22.594l-249.14 197.58c-6.8438 5.4375-15.844 6.7031-24.047 3.4688-3.8438-1.5469-12.938-6.4219-14.672-18.562-4.0312-28.406-2.2031-56.859 5.4375-84.562 2.625-9.5625-3-19.5-12.562-22.125-9.5156-2.5781-19.5 3-22.125 12.562-8.9531 32.484-11.109 65.812-6.375 99.141 3 21.328 16.828 38.906 36.938 46.922 7.4062 2.9531 15.047 4.4062 22.594 4.4062 13.266 0 26.25-4.4531 37.125-13.078l70.5-55.922 45.281 51.797c-67.031 74.766-110.81 170.58-117.98 274.36-7.0312 101.3 18.188 199.4 73.031 283.78 5.3906 8.2969 6.1406 19.031 1.9688 28.781l-35.625 83.297c-14.203 33.938-0.65625 72.609 31.688 90.047 32.344 17.156 72 7.2656 92.25-22.922l33.984-50.719c77.859 54.328 168.66 82.922 263.81 82.922 95.148 0 185.9-28.594 263.81-82.922l33.984 50.719c20.25 30.234 59.906 40.078 92.391 22.875 32.203-17.391 45.75-56.062 31.594-90 0-0.046875-0.046875-0.09375-0.046875-0.14062l-35.578-83.109c-4.125-9.6562-2.9062-21.188 3.3281-30.844 47.625-74.203 72.844-160.22 72.844-248.81 0-114.19-42.656-223.87-118.27-308.29l44.438-50.766 70.5 55.922c10.875 8.625 23.906 13.078 37.125 13.078 7.5469 0 15.188-1.4531 22.594-4.4062 20.109-8.0625 33.938-25.594 36.938-46.922 12.094-85.5-22.5-171.98-90.328-225.74zm-569.72-21.562c0-16.547 13.453-30 30-30h148.87c16.547 0 30 13.453 30 30s-13.453 30-30 30h-148.87c-16.547 0-30-13.453-30-30zm135.47 66v62.109c-19.875-1.3594-39.891-1.2656-60-0.046875v-62.062zm-344.06 103.92 40.781 46.641c-16.125 11.906-31.219 25.031-45.703 38.906l-42.188-48.234 47.062-37.312zm672.19 648.14c-12.656 19.688-14.953 43.781-6.0938 64.453l35.531 83.062c6.9844 16.734 0.32812 35.812-15.375 44.297-15.984 8.4375-35.578 3.6562-45.469-11.156l-40.406-60.281 25.781-66-21.188 20.812c-45.094 44.297-98.438 80.391-158.39 100.31-42.609 14.156-87.469 21.422-133.45 21.422-74.859 0-146.81-19.219-210.89-55.969-27.609-15.844-52.219-36.328-75-58.594-14.297-13.969-28.641-27.984-28.641-27.984l26.297 67.453-39.422 58.828c-9.9375 14.859-29.531 19.641-45.375 11.25-15.844-8.5312-22.5-27.656-15.516-44.297l35.578-83.156c8.9062-20.766 7.0312-44.156-4.875-62.531-50.484-77.766-73.781-168.24-67.312-261.71 13.875-200.11 174.14-368.9 372.84-392.63 123.74-14.719 242.63 22.266 335.02 104.3 91.219 81 143.53 197.21 143.53 318.79 0 81.656-23.203 160.97-67.125 229.36zm-40.594-563.26c-4.0781-3.8906-7.7344-8.0625-11.953-11.812-10.828-9.6094-22.219-18.469-33.844-26.953l40.312-46.125 47.062 37.312-41.578 47.531zm201.42-12.516c-1.6875 12.141-10.828 17.016-14.672 18.562-8.2031 3.2344-17.203 1.9688-24.047-3.4688l-249.14-197.63c-6.8438-5.4375-10.125-13.875-8.8125-22.594 0.60937-4.0781 3.2812-14.062 14.719-18.516 68.625-26.625 147.19-14.672 204.94 31.125 57.844 45.891 87.375 119.62 77.062 192.56zm-519.94-19.781c-201.94 0-366.28 164.29-366.28 366.24 0 201.94 164.29 366.28 366.28 366.28s366.28-164.29 366.28-366.28c0-201.94-164.29-366.24-366.28-366.24zm312.24 384.28h17.109c-4.2188 77.484-35.109 147.79-83.812 202.08l-12.047-12.047c-7.0312-7.0312-18.422-7.0312-25.453 0s-7.0312 18.422 0 25.453l12.047 12.047c-54.281 48.703-124.6 79.594-202.08 83.812v-17.109c0-9.9375-8.0625-18-18-18s-18 8.0625-18 18v17.109c-77.484-4.2188-147.79-35.109-202.08-83.812l12.047-12.047c7.0312-7.0312 7.0312-18.422 0-25.453s-18.422-7.0312-25.453 0l-12.047 12.047c-48.703-54.281-79.594-124.6-83.812-202.08h17.109c9.9375 0 18-8.0625 18-18s-8.0625-18-18-18h-17.109c4.2188-77.484 35.109-147.79 83.812-202.08l12.047 12.047c3.5156 3.5156 8.1094 5.25 12.75 5.25 4.5938 0 9.1875-1.7812 12.75-5.25 7.0312-7.0312 7.0312-18.422 0-25.453l-12.047-12.047c54.281-48.703 124.6-79.594 202.08-83.812v17.109c0 9.9375 8.0625 18 18 18s18-8.0625 18-18v-17.109c77.484 4.2188 147.79 35.109 202.08 83.812l-12.047 12.047c-7.0312 7.0312-7.0312 18.422 0 25.453 3.5156 3.5156 8.1094 5.25 12.75 5.25 4.5938 0 9.1875-1.7812 12.75-5.25l12.047-12.047c48.703 54.281 79.594 124.6 83.812 202.08h-17.109c-9.9375 0-18 8.0625-18 18s8.0625 18 18 18zm-290.39-80.531c2.6719-65.766 0.89062-131.26-20.156-195.47-19.688 36.469-17.297 84.938-21.141 125.29-0.9375 23.25-1.1719 46.453-0.75 69.703-26.766 8.625-46.312 33.469-46.312 63.047 0 9.9844 2.3438 19.312 6.3281 27.844-1.8281 1.9219-3.75 3.7969-5.5312 5.7656-25.219 28.781-53.531 52.547-63.844 92.391 19.219-0.23438 38.156-15.844 52.078-25.922 15.656-13.641 31.031-27.562 46.172-41.766 9.375 5.0625 19.969 8.2031 31.359 8.2031 36.656 0 66.516-29.812 66.516-66.516 0-29.016-18.75-53.438-44.719-62.531zm-21.797 93.047c-16.828 0-30.516-13.688-30.516-30.516s13.688-30.516 30.516-30.516 30.516 13.688 30.516 30.516-13.688 30.516-30.516 30.516zm-524.02-525c0-10.078 8.1562-18 18-18 10.078 0 18 7.9219 18 18 0 9.8438-7.9219 18-18 18-9.8438 0-18-8.1562-18-18z"/>
</svg>
