<svg width="2997" height="1549" viewBox="0 0 2997 1549" fill="none" xmlns="http://www.w3.org/2000/svg">
<path d="M401.318 479.055C472.169 494.61 555.787 554.976 600.592 610.696C610.486 622.975 627.348 645.305 631.256 659.62C637.575 655.386 645.379 653.122 652.382 650.246C772.567 600.464 925.269 630.71 1026.44 707.974C1056.44 730.889 1045.5 738.436 1033.21 773.072C1073.94 790.547 1080.42 820.043 1068.13 857.335L961.755 1180.07C951.923 1209.77 942.695 1239.75 932.43 1269.3C927.7 1282.86 920.836 1280.55 910.216 1274.18C877.204 1254.32 841.676 1237.6 805.363 1224.72C787.508 1218.35 768.926 1213.67 751.278 1206.8C745.822 1206.97 739.484 1205.05 734.102 1203.93C667.706 1190.32 587.375 1186.06 520.895 1200.62C493.843 1206.55 480.595 1212.12 452.38 1202.69C422.435 1192.69 411.258 1172.15 390.763 1151.06C303.529 1061.23 175.091 1001.38 51.0732 988.774C37.9585 987.457 21.5241 991.32 27.4375 971.529C36.2238 942.361 46.4768 913.502 56.0103 884.578L162.427 561.986C164.654 554.965 166.553 547.75 169.239 540.924C179.177 515.795 216.814 502.323 241.197 512.015C257.219 479.002 241.619 462.359 284.664 461.692C323.627 461.116 364.299 466.854 401.323 479.057L401.318 479.055ZM398.219 499.293C356.801 481.808 315.108 483.4 272.265 482.13L139.245 885.696C242.526 906.234 350.466 949.74 420.777 1030.77C439.322 1051.56 462.976 1082.23 473.673 1107.93L616.281 675.279C594.579 606.437 473.631 514.464 398.215 499.282L398.219 499.293ZM891.896 662.014C822.529 644.204 755.678 638.855 686.16 659.549C668.867 664.697 649.665 670.479 634.982 681.454L496.885 1100.69C495.435 1105.09 494.313 1109.95 492.377 1114.1C531.447 1098.53 553.973 1085.44 599.499 1079.62C701.971 1066.91 800.943 1088.34 893.171 1134.2L1025.59 732.471C991.189 701.747 936.106 674.573 891.893 662.004L891.896 662.014ZM234.832 531.351C188.983 518.983 184.72 558.747 174.553 589.595L49.7564 968.212C68.3206 971.369 86.8802 973.217 105.368 977.133C224.201 1002.54 334.843 1059.3 416.834 1149.67C453.908 1190.52 462.141 1191.44 515.609 1180.84C642.069 1155.78 754.457 1178.4 869.45 1229.72C885.738 1237.01 900.713 1246.69 916.936 1254.04L1036.57 891.103C1048.55 854.754 1074.28 813.439 1026.84 792.402C1023.21 801.704 1020.53 811.539 1017.4 821.049L920.151 1116.22C917.483 1124.44 915.19 1135.1 911.29 1142.7C900.968 1162.78 879.073 1149.51 866.218 1143.44C751.666 1089.17 610.882 1073.92 496.203 1135.28C486.59 1140.39 474.383 1152.44 466.215 1139.42C462.36 1133.27 459.797 1125.85 456.7 1119.25C400.432 999.196 264.972 928.933 139.376 906.959C114.16 902.569 119.79 879.941 125.529 862.795L207.259 614.967C216.429 587.145 225.127 559.038 235.319 531.553L234.832 531.351Z" fill="#C26A46"/>
<path d="M1528.92 505.185C1621.69 446.885 1775.68 423.315 1882.96 435.858C1906.62 438.6 1948.43 444.786 1967.8 456.061C1970.12 444.808 1976.13 434.104 1980.62 423.589C2057.31 242.669 2253.79 113.485 2444.59 89.518C2501.17 82.4156 2497.38 102.131 2520.84 152.445C2583.21 128.124 2621.43 153.02 2647.7 206.199L2875.02 666.429C2895.88 708.822 2917.7 750.883 2937.96 793.583C2947.23 813.195 2937.39 817.982 2919.2 822.366C2862.62 835.953 2806.65 855.581 2753.9 880.173C2727.93 892.233 2702.95 906.869 2676.68 918.173C2670.97 924.127 2662.12 928.78 2655.14 933.274C2569.22 988.953 2478.2 1069.46 2422.03 1155.55C2399.19 1190.6 2390.82 1210.63 2350.44 1230.36C2307.6 1251.31 2273.8 1241.03 2229.4 1240.03C2040.3 1235.7 1838.59 1307.3 1691.69 1425.1C1676.17 1437.57 1662.56 1459.14 1647.97 1431.57C1626.53 1390.85 1607 1348.91 1586.63 1307.66L1359.51 847.546C1354.47 837.627 1348.87 827.845 1344.53 817.649C1328.62 780.062 1354.88 725.685 1391.4 710.294C1373.68 657.771 1339.26 656.373 1384.9 610.058C1426.25 568.164 1476.13 531.26 1528.92 505.183L1528.92 505.185ZM1547.02 530.262C1483.89 555.306 1440.68 601.186 1393.2 645.202L1677.45 1220.7C1810.42 1133.41 1972.75 1065.92 2134.3 1078.7C2176.29 1081.45 2234.25 1089.42 2273 1105.77L1968.26 488.786C1871.97 437.641 1644.3 466.717 1547 530.254L1547.02 530.262ZM2251.02 182.547C2157.45 236.847 2079.79 301.901 2026.85 397.826C2013.68 421.688 1999.13 448.254 1994.94 475.626L2290.32 1073.38C2293.42 1079.65 2297.36 1086.07 2299.67 1092.6C2325.25 1034.44 2335.64 996.478 2378.5 941.988C2475.39 819.755 2604.67 737.988 2752.57 689.683L2469.62 116.804C2400.03 120.155 2311.93 149.24 2251 182.539L2251.02 182.547ZM1405.03 737.858C1342.55 773.107 1380.09 820.443 1401.81 864.433L1668.49 1404.35C1691.82 1388.09 1713.77 1370.42 1737.82 1355.05C1892.7 1256.53 2071.98 1200.46 2256.01 1210.92C2339.19 1215.63 2349.04 1207.91 2395.38 1139.85C2505.02 978.909 2650.01 884.22 2828.21 817.675C2853.47 808.267 2879.85 802.834 2905.11 793.565L2649.48 276.001C2623.88 224.166 2607.82 152.42 2534.45 180.014C2540.39 193.879 2547.93 207.304 2554.63 220.865L2762.57 641.737C2768.41 653.421 2777.23 667.328 2781.09 679.646C2791.24 712.203 2753.61 721.103 2733.33 728.187C2552.49 791.089 2384.72 923.793 2326.22 1111.35C2321.28 1127.03 2320.91 1152.94 2298.32 1147.57C2287.66 1145.03 2277.03 1139.76 2266.71 1135.93C2078.94 1066.25 1858.64 1134.08 1700.11 1243.46C1668.31 1265.44 1650.4 1235.11 1638.42 1210.57L1463.91 857.111C1444.31 817.436 1423.91 777.953 1405.77 737.56L1405.03 737.858Z" fill="#C26A46"/>
</svg>
