<svg width="2832" height="459" viewBox="0 0 2832 459" fill="none" xmlns="http://www.w3.org/2000/svg">
<path d="M2805.21 36.4821L2757.88 109.677V163.477C2757.88 174.56 2759.26 181.256 2761.8 186.567C2764.34 191.878 2768.04 195.572 2772.65 200.652H2699C2708.7 190.723 2714.01 185.644 2714.01 163.477V121.684L2664.36 36.713C2657.2 24.7062 2648.2 6.92694 2639.66 2.77075H2716.55C2711.24 5.77244 2709.16 11.0831 2709.16 17.0865C2709.16 23.3208 2711.47 30.2478 2714.47 35.5585L2748.87 94.438L2786.05 36.944C2789.51 31.4023 2792.28 24.4753 2792.28 18.241C2792.28 12.0067 2789.74 6.23425 2782.58 2.77075H2831.07C2822.99 10.1596 2812.83 24.4753 2805.21 36.4821Z" fill="#1E1E1E"/>
<path d="M2572.28 156.781C2591.68 188.414 2604.84 190.262 2605.76 190.492C2600.91 196.496 2587.52 202.268 2572.74 202.268C2509.01 202.268 2513.4 118.913 2503.01 118.913H2486.85V163.246C2486.85 185.644 2492.16 190.492 2501.86 200.652H2427.97C2437.67 190.492 2442.98 185.644 2442.98 163.246V39.9456C2442.98 17.7792 2437.67 12.6994 2427.97 2.77075H2535.57C2584.52 2.77075 2599.99 28.6315 2599.99 60.7267C2599.99 92.1291 2585.21 117.528 2539.26 118.913C2551.5 128.38 2563.04 141.542 2572.28 156.781ZM2486.85 103.212H2507.4C2547.57 103.212 2554.5 84.2785 2554.5 60.7267C2554.5 37.4057 2547.57 18.4719 2507.4 18.4719H2490.08C2488 23.5517 2486.85 30.0169 2486.85 39.9456V103.212Z" fill="#1E1E1E"/>
<path d="M2375.96 200.652H2302.3C2309.69 197.881 2312.23 190.723 2312.23 182.873C2312.23 176.869 2310.84 170.635 2308.76 165.324L2298.14 137.155H2231.64L2221.02 165.324C2219.17 170.173 2218.02 175.946 2218.02 181.487C2218.02 190.031 2220.79 198.112 2227.72 200.652H2182.23C2192.62 193.725 2199.09 178.255 2204.17 165.093L2253.35 36.2512C2256.12 28.8624 2257.04 23.09 2257.04 18.4719C2257.04 6.46515 2250.58 2.77075 2250.58 2.77075H2293.29L2355.64 166.017C2360.49 178.486 2367.41 196.265 2375.96 200.652ZM2237.65 121.453H2292.14L2264.89 49.6434L2237.65 121.453Z" fill="#1E1E1E"/>
<path d="M2098.62 156.781C2118.01 188.414 2131.18 190.262 2132.1 190.492C2127.25 196.496 2113.86 202.268 2099.08 202.268C2035.35 202.268 2039.74 118.913 2029.35 118.913H2013.19V163.246C2013.19 185.644 2018.5 190.492 2028.19 200.652H1954.31C1964 190.492 1969.32 185.644 1969.32 163.246V39.9456C1969.32 17.7792 1964 12.6994 1954.31 2.77075H2061.91C2110.86 2.77075 2126.33 28.6315 2126.33 60.7267C2126.33 92.1291 2111.55 117.528 2065.6 118.913C2077.84 128.38 2089.38 141.542 2098.62 156.781ZM2013.19 103.212H2033.74C2073.91 103.212 2080.84 84.2785 2080.84 60.7267C2080.84 37.4057 2073.91 18.4719 2033.74 18.4719H2016.42C2014.34 23.5517 2013.19 30.0169 2013.19 39.9456V103.212Z" fill="#1E1E1E"/>
<path d="M1866.8 90.5127C1889.2 99.9796 1897.05 119.606 1897.05 142.696C1897.05 174.791 1881.35 200.652 1832.63 200.652H1725.03C1734.5 190.723 1739.81 185.644 1739.81 163.477V40.1765C1739.81 17.7793 1734.5 12.9303 1725.03 2.77075H1833.09C1868.19 2.77075 1884.81 24.4753 1884.81 51.4907C1884.81 67.4228 1879.04 81.5076 1866.8 90.5127ZM1804.69 18.4719H1786.91C1785.06 23.5517 1783.91 30.0169 1783.91 40.1765V84.5094H1804.69C1831.24 84.5094 1839.56 69.7317 1839.56 51.4907C1839.56 33.2495 1831.24 18.4719 1804.69 18.4719ZM1786.91 184.951H1804.23C1844.41 184.951 1851.56 166.017 1851.56 142.465C1851.56 119.144 1844.41 100.211 1804.23 100.211H1783.91V163.477C1783.91 173.406 1785.06 179.871 1786.91 184.951Z" fill="#1E1E1E"/>
<path d="M1596.1 2.77075H1669.75C1660.29 12.9303 1654.98 17.7793 1654.98 40.1765V163.477C1654.98 185.644 1660.29 190.723 1669.75 200.652H1596.1C1605.56 190.723 1610.87 185.644 1610.87 163.477V40.1765C1610.87 17.7793 1605.56 12.9303 1596.1 2.77075Z" fill="#1E1E1E"/>
<path d="M1444.94 184.951H1459.26C1514.67 184.951 1527.6 148.93 1534.99 114.526V200.652H1382.83C1392.53 190.723 1397.84 185.644 1397.84 163.477V40.1765C1397.84 17.7793 1392.53 12.9303 1382.83 2.77075H1456.72C1447.02 12.9303 1441.71 17.7793 1441.71 40.1765V163.477C1441.71 173.406 1442.86 179.871 1444.94 184.951Z" fill="#1E1E1E"/>
<path d="M1145.55 15.7012C1100.06 15.7012 1094.98 56.1087 1094.98 102.058C1094.98 148.007 1100.06 187.722 1145.55 187.722C1179.95 187.722 1209.97 158.628 1213.2 127.688V193.956C1196.81 198.805 1164.94 203.423 1145.55 203.423C1073.97 203.423 1046.49 156.55 1046.49 102.058C1046.49 47.3345 1073.97 0 1145.55 0C1164.94 0 1188.49 2.53989 1213.2 9.6978V76.197C1209.97 45.0255 1179.95 15.7012 1145.55 15.7012Z" fill="#1E1E1E"/>
<path d="M913.272 2.77075H986.93C977.463 12.9303 972.152 17.7793 972.152 40.1765V163.477C972.152 185.644 977.463 190.723 986.93 200.652H913.272C922.739 190.723 928.05 185.644 928.05 163.477V40.1765C928.05 17.7793 922.739 12.9303 913.272 2.77075Z" fill="#1E1E1E"/>
<path d="M762.118 184.951H776.434C831.85 184.951 844.78 148.93 852.169 114.526V200.652H700.006C709.704 190.723 715.014 185.644 715.014 163.477V40.1765C715.014 17.7793 709.704 12.9303 700.006 2.77075H773.894C764.196 12.9303 758.885 17.7793 758.885 40.1765V163.477C758.885 173.406 760.04 179.871 762.118 184.951Z" fill="#1E1E1E"/>
<path d="M612.502 90.5127C634.899 99.9796 642.75 119.606 642.75 142.696C642.75 174.791 627.049 200.652 578.329 200.652H470.729C480.196 190.723 485.507 185.644 485.507 163.477V40.1765C485.507 17.7793 480.196 12.9303 470.729 2.77075H578.791C613.888 2.77075 630.512 24.4753 630.512 51.4907C630.512 67.4228 624.74 81.5076 612.502 90.5127ZM550.39 18.4719H532.611C530.764 23.5517 529.609 30.0169 529.609 40.1765V84.5094H550.39C576.944 84.5094 585.256 69.7317 585.256 51.4907C585.256 33.2495 576.944 18.4719 550.39 18.4719ZM532.611 184.951H549.928C590.105 184.951 597.263 166.017 597.263 142.465C597.263 119.144 590.105 100.211 549.928 100.211H529.609V163.477C529.609 173.406 530.764 179.871 532.611 184.951Z" fill="#1E1E1E"/>
<path d="M371.834 2.77075H417.321C407.854 12.9303 402.544 17.7793 402.544 40.1765V119.606C402.544 175.946 366.061 200.652 321.267 200.652C276.472 200.652 240.221 177.562 240.221 119.606V40.1765C240.221 28.8624 238.836 22.1663 236.296 16.8556C233.756 11.5449 230.061 7.85054 225.443 2.77075H299.1C289.634 12.9303 284.092 17.7793 284.092 40.1765V127.457C284.092 168.788 306.258 182.18 334.659 182.18C363.06 182.18 386.842 162.323 386.842 126.302V40.1765C386.842 28.8624 385.457 22.1663 382.917 16.8556C380.377 11.5449 376.683 7.85054 371.834 2.77075Z" fill="#1E1E1E"/>
<path d="M0 2.77075H107.369C156.319 2.77075 171.79 28.8624 171.79 60.9575C171.79 93.0527 156.319 118.913 107.369 118.913H58.6486V163.477C58.6486 185.644 63.9593 190.723 73.6571 200.652H0C9.4669 190.723 14.7776 185.644 14.7776 163.477V40.1765C14.7776 17.7793 9.4669 12.9303 0 2.77075ZM58.6486 103.212H79.1987C119.375 103.212 126.302 84.2784 126.302 60.9575C126.302 37.4057 119.375 18.4719 79.1987 18.4719H61.8812C59.8031 23.5517 58.6486 30.0169 58.6486 40.1765V103.212Z" fill="#1E1E1E"/>
<path d="M1531.58 408.351H1547.68C1591.28 408.351 1601.41 380.131 1607.19 353.177V420.652H1483.1C1490.51 412.874 1494.67 408.894 1494.67 391.527V294.927C1494.67 277.38 1490.51 273.581 1483.1 265.621H1602.67V323.328C1596.88 296.555 1583.86 277.922 1543.16 277.922H1531.58C1529.95 281.902 1529.23 286.967 1529.23 294.927V337.077H1546.23C1575.36 337.077 1576.8 328.212 1584.4 314.283V371.99C1576.8 358.061 1575.36 349.378 1546.23 349.378H1529.23V391.527C1529.23 399.306 1529.95 404.371 1531.58 408.351Z" fill="#B25B36"/>
<path d="M1427.79 294.927V391.527C1427.79 400.211 1428.88 405.457 1430.87 409.617C1432.86 413.778 1435.75 416.673 1439.55 420.652H1381.84C1389.26 412.874 1393.42 408.894 1393.42 391.527V295.65L1342.77 411.426L1295.37 307.409V391.527C1295.37 400.211 1296.46 405.457 1298.45 409.617C1300.44 413.778 1303.33 416.673 1307.13 420.652H1271.49C1278.91 412.874 1283.07 408.894 1283.07 391.527V294.927C1283.07 286.063 1282.17 280.817 1280.18 276.656C1278.19 272.495 1275.29 269.601 1271.49 265.621H1314.55L1354.53 353.358L1393.42 265.621H1439.55C1431.95 273.581 1427.79 277.38 1427.79 294.927Z" fill="#B25B36"/>
<path d="M1119.9 384.11H1120.62C1131.29 384.472 1138.17 392.613 1138.17 402.381V403.105C1137.81 411.245 1137.99 449.596 1115.01 459.003C1116.28 457.375 1121.52 448.149 1121.52 426.803C1121.52 424.813 1121.34 422.823 1121.34 420.652H1119.17C1108.5 420.29 1101.63 412.15 1101.63 402.381V401.658C1101.99 391.708 1109.04 384.11 1119.9 384.11Z" fill="#B25B36"/>
<path d="M1058.81 337.076C1051.39 344.855 1047.23 348.835 1047.23 366.201V415.225C1038.91 417.396 1025.34 419.567 1012.68 421.195C1003.82 422.1 995.315 422.823 989.526 422.823C933.447 422.823 911.92 386.1 911.92 343.408C911.92 300.535 933.447 263.45 989.526 263.45C1004.72 263.45 1022.99 265.44 1042.53 271.048V323.147C1040 298.726 1016.48 275.751 989.526 275.751C953.889 275.751 949.909 307.409 949.909 343.408C949.909 379.407 953.889 410.522 989.526 410.522C997.667 410.522 1005.63 408.351 1012.68 404.733V366.201C1012.68 357.518 1011.78 352.272 1009.79 348.111C1007.8 343.951 1004.9 340.875 1001.1 337.076H1058.81Z" fill="#B25B36"/>
<path d="M829.971 265.621H865.608C858.01 273.581 853.85 277.38 853.85 294.927V420.652H830.514L748.928 296.374V391.527C748.928 400.211 750.013 405.457 752.003 409.617C753.993 413.778 756.887 416.673 760.686 420.652H725.049C732.466 412.874 736.626 408.894 736.626 391.527V294.927C736.626 286.063 735.722 280.817 733.732 276.656C731.742 272.495 728.848 269.601 725.049 265.621H769.55L841.548 376.332V294.927C841.548 286.063 840.644 280.817 838.654 276.656C836.664 272.495 833.77 269.601 829.971 265.621Z" fill="#B25B36"/>
<path d="M601.121 263.45C657.019 263.45 678.546 300.535 678.546 343.408C678.546 386.1 657.019 422.823 601.121 422.823C545.223 422.823 523.515 386.1 523.515 343.408C523.515 300.535 545.223 263.45 601.121 263.45ZM601.121 410.522C636.758 410.522 640.376 379.407 640.376 343.408C640.376 307.409 636.758 275.751 601.121 275.751C565.483 275.751 561.504 307.409 561.504 343.408C561.504 379.407 565.483 410.522 601.121 410.522Z" fill="#B25B36"/>
<path d="M453.062 386.281C468.258 411.065 478.569 412.512 479.293 412.693C475.494 417.396 465.002 421.919 453.424 421.919C403.496 421.919 406.933 356.614 398.793 356.614H386.13V391.347C386.13 408.894 390.29 412.693 397.888 420.652H340C347.598 412.693 351.759 408.894 351.759 391.347V294.746C351.759 277.38 347.598 273.4 340 265.621H424.299C462.65 265.621 474.771 285.882 474.771 311.027C474.771 335.629 463.193 355.528 427.194 356.614C436.781 364.031 445.827 374.342 453.062 386.281ZM386.13 344.313H402.23C433.706 344.313 439.133 329.479 439.133 311.027C439.133 292.756 433.706 277.922 402.23 277.922H388.662C387.034 281.902 386.13 286.967 386.13 294.746V344.313Z" fill="#B25B36"/>
<path d="M162.315 265.621H293.468V323.328C288.222 298.364 281.529 280.636 247.519 278.284C245.891 282.083 245.168 287.148 245.168 294.927V391.527C245.168 408.894 249.328 412.874 256.745 420.652H199.038C206.455 412.874 210.616 408.894 210.616 391.527V294.927C210.616 287.148 209.892 282.083 208.264 278.284C174.255 280.636 167.562 298.364 162.315 323.328V265.621Z" fill="#B25B36"/>
<path d="M38.3508 292.032C38.3508 326.403 113.967 326.222 113.967 375.246C113.967 416.311 78.6915 422.823 53.7273 422.823C42.8733 422.823 15.9192 419.929 2.3517 416.311L2.5326 354.986C10.1304 387.186 26.5923 410.522 53.7273 410.522H54.27C66.933 410.341 79.0533 404.19 79.0533 389.357C79.0533 353.177 0 347.931 0 303.791C0 268.334 31.2957 263.45 56.2599 263.45C71.0937 263.45 91.7163 267.43 104.198 270.505V317.901C100.942 295.831 82.8522 275.751 59.5161 275.751H58.2498C53.9082 275.751 38.3508 276.837 38.3508 292.032Z" fill="#B25B36"/>
<path d="M2749.3 412.396C2750.41 414.717 2752.02 416.432 2754.14 418.652H2721.95C2726.09 414.213 2728.41 411.993 2728.41 402.306V349.838C2728.41 344.894 2727.7 337.024 2721.95 333.493L2747.58 332.08V402.306C2747.58 407.15 2748.19 410.076 2749.3 412.396Z" fill="#B25B36"/>
<path d="M2680.57 351.352L2671.49 363.763C2687.53 366.083 2694.5 377.384 2694.5 391.006C2694.5 406.242 2685.62 418.652 2665.13 418.652C2655.04 418.652 2644.45 416.735 2639.1 415.726V388.483C2639.91 390.098 2640.62 391.813 2641.42 393.528C2642.53 395.748 2643.64 398.069 2644.95 400.188C2648.99 406.645 2654.54 411.791 2663.92 411.791C2674.11 411.791 2675.73 402.407 2675.73 391.006C2675.73 380.108 2673.71 374.155 2669.47 371.936C2667.25 370.725 2665.03 370.22 2663.12 370.22C2660.8 370.22 2658.78 370.826 2657.26 371.835L2663.52 363.359L2672.3 351.352H2665.03C2652.02 351.352 2643.84 357.709 2640.51 368.202V332.08H2694.7L2680.57 351.352Z" fill="#B25B36"/>
<path d="M2581.49 386.465C2560.41 386.465 2551.43 373.752 2551.43 358.011C2551.43 342.271 2560.41 329.457 2581.49 329.457C2602.48 329.457 2611.46 343.078 2611.46 361.745C2611.46 372.137 2607.83 403.013 2565.85 418.652C2567.67 417.24 2582 402.609 2587.75 385.153C2585.13 386.162 2583.41 386.465 2581.49 386.465ZM2581.49 336.52C2571 336.52 2570.6 346.105 2570.6 358.011C2570.6 369.817 2571 379.402 2581.49 379.402C2586.64 379.402 2592.29 376.577 2592.29 358.011C2592.29 346.105 2591.89 336.52 2581.49 336.52Z" fill="#B25B36"/>
<path d="M2523.41 412.396C2524.52 414.717 2526.14 416.432 2528.26 418.652H2496.07C2500.21 414.213 2502.53 411.993 2502.53 402.306V349.838C2502.53 344.894 2501.82 337.024 2496.07 333.493L2521.7 332.08V402.306C2521.7 407.15 2522.3 410.076 2523.41 412.396Z" fill="#B25B36"/>
<path d="M2472.33 408.461C2472.33 414.112 2468.39 418.652 2462.14 418.652C2455.88 418.652 2451.94 414.112 2451.94 408.461C2451.94 402.811 2455.78 398.271 2462.14 398.271C2468.29 398.271 2472.33 402.811 2472.33 408.461Z" fill="#B25B36"/>
<path d="M2355.1 332.181H2428.26V364.368C2425.33 350.444 2421.6 340.555 2402.63 339.244C2401.72 341.363 2401.32 344.188 2401.32 348.526V402.407C2401.32 412.093 2403.64 414.313 2407.77 418.652H2375.59C2379.72 414.313 2382.04 412.093 2382.04 402.407V348.526C2382.04 344.188 2381.64 341.363 2380.73 339.244C2361.76 340.555 2358.03 350.444 2355.1 364.368V332.181Z" fill="#B25B36"/>
<path d="M2285.96 346.912C2285.96 366.083 2328.14 365.983 2328.14 393.326C2328.14 416.231 2308.46 419.863 2294.54 419.863C2288.48 419.863 2273.45 418.249 2265.88 416.231L2265.98 382.026C2270.22 399.986 2279.4 413.002 2294.54 413.002H2294.84C2301.9 412.901 2308.66 409.47 2308.66 401.197C2308.66 381.017 2264.57 378.091 2264.57 353.471C2264.57 333.695 2282.03 330.97 2295.95 330.97C2304.22 330.97 2315.73 333.19 2322.69 334.905V361.341C2320.87 349.031 2310.78 337.831 2297.77 337.831H2297.06C2294.64 337.831 2285.96 338.437 2285.96 346.912Z" fill="#B25B36"/>
<path d="M2190.04 411.791H2199.02C2223.34 411.791 2228.99 396.05 2232.22 381.016V418.652H2163C2167.14 414.313 2169.46 412.093 2169.46 402.407V348.526C2169.46 338.739 2167.14 336.62 2163 332.181H2229.69V364.368C2226.47 349.435 2219.2 339.042 2196.5 339.042H2190.04C2189.13 341.262 2188.73 344.087 2188.73 348.526V372.036H2198.21C2214.46 372.036 2215.27 367.092 2219.5 359.323V391.51C2215.27 383.741 2214.46 378.897 2198.21 378.897H2188.73V402.407C2188.73 406.746 2189.13 409.571 2190.04 411.791Z" fill="#B25B36"/>
</svg>
