<svg width="593" height="578" viewBox="0 0 593 578" fill="none" xmlns="http://www.w3.org/2000/svg">
<mask id="mask0_15_1657" style="mask-type:alpha" maskUnits="userSpaceOnUse" x="0" y="0" width="593" height="578">
<rect width="593" height="578" fill="#D9D9D9"/>
</mask>
<g mask="url(#mask0_15_1657)">
<path d="M585.5 289C585.5 444.288 456.293 570.5 296.5 570.5C136.707 570.5 7.5 444.288 7.5 289C7.5 133.712 136.707 7.5 296.5 7.5C456.293 7.5 585.5 133.712 585.5 289Z" fill="#80977A" stroke="#402A22" stroke-width="15"/>
<mask id="mask1_15_1657" style="mask-type:alpha" maskUnits="userSpaceOnUse" x="0" y="0" width="593" height="578">
<path d="M585.5 289C585.5 444.288 456.293 570.5 296.5 570.5C136.707 570.5 7.5 444.288 7.5 289C7.5 133.712 136.707 7.5 296.5 7.5C456.293 7.5 585.5 133.712 585.5 289Z" fill="#FCEDC9" stroke="#1E1E1E" stroke-width="15"/>
</mask>
<g mask="url(#mask1_15_1657)">
<path d="M147.5 442.5L54 449V481L182.5 577L364 586L385.5 490.5L392 462.5L385.5 438L354.5 442.5L287 428L239 449L206.5 428L147.5 442.5Z" fill="#C26A46"/>
<path d="M249.173 139.758C242.548 134.672 237.407 129.076 232.969 123.249C236.342 123.002 239.716 122.766 243.089 122.38C244.975 122.164 245.659 119.747 244.169 118.581C238.936 114.486 234.771 110.026 231.16 105.381C232.785 105.245 234.41 105.16 236.034 104.983C237.924 104.776 238.584 102.383 237.116 101.187C233.38 98.1447 230.348 94.8619 227.699 91.4521C229.094 91.3431 230.489 91.2709 231.884 91.1256C233.762 90.9306 234.434 88.5587 232.994 87.3458C225.425 80.9677 221.309 73.4088 216.842 66.0278C216.013 64.6575 213.986 64.6575 213.157 66.0274C208.689 73.4094 204.574 80.9674 197.005 87.3455C195.566 88.5584 196.237 90.9299 198.115 91.1252C199.51 91.2701 200.906 91.3423 202.301 91.4513C199.652 94.8611 196.62 98.1443 192.885 101.186C191.416 102.382 192.077 104.776 193.966 104.982C195.59 105.16 197.215 105.245 198.84 105.381C195.229 110.025 191.064 114.486 185.831 118.579C184.34 119.745 185.025 122.162 186.911 122.378C190.284 122.765 193.657 123.001 197.03 123.248C192.592 129.075 187.452 134.671 180.827 139.757C179.317 140.916 179.994 143.357 181.891 143.58C190.375 144.575 198.858 145.179 207.342 145.409C206.52 150.606 204.343 155.804 200.741 161H229.259C225.657 155.803 223.48 150.606 222.658 145.409C231.141 145.179 239.625 144.575 248.109 143.58C250.005 143.357 250.683 140.917 249.173 139.757L249.173 139.758Z" fill="#402A22"/>
<path d="M177.445 151.839C172.997 148.448 169.545 144.718 166.565 140.833C168.83 140.668 171.095 140.511 173.36 140.253C174.626 140.109 175.085 138.498 174.085 137.72C170.571 134.991 167.775 132.017 165.35 128.921C166.441 128.83 167.532 128.773 168.623 128.655C169.891 128.518 170.335 126.922 169.349 126.124C166.841 124.096 164.805 121.908 163.026 119.635C163.963 119.562 164.9 119.514 165.836 119.417C167.098 119.287 167.549 117.706 166.582 116.897C161.5 112.645 158.736 107.606 155.737 102.685C155.18 101.772 153.819 101.772 153.262 102.685C150.263 107.606 147.5 112.645 142.418 116.897C141.451 117.706 141.902 119.287 143.163 119.417C144.1 119.513 145.037 119.562 145.973 119.634C144.195 121.907 142.159 124.096 139.651 126.124C138.665 126.921 139.109 128.517 140.377 128.655C141.468 128.773 142.559 128.83 143.65 128.921C141.225 132.017 138.429 134.991 134.915 137.719C133.914 138.497 134.374 140.108 135.64 140.252C137.905 140.51 140.17 140.667 142.435 140.832C139.455 144.717 136.004 148.447 131.555 151.838C130.541 152.611 130.996 154.238 132.269 154.386C137.966 155.05 143.662 155.453 149.358 155.606C148.806 159.071 147.344 162.536 144.926 166H164.074C161.656 162.536 160.194 159.071 159.642 155.606C165.338 155.453 171.034 155.05 176.731 154.386C178.004 154.238 178.459 152.611 177.445 151.838L177.445 151.839Z" fill="#402A22"/>
<path d="M482.114 469.431C475.016 464.027 469.508 458.081 464.752 451.89C468.367 451.627 471.982 451.376 475.595 450.966C477.616 450.736 478.349 448.168 476.753 446.929C471.146 442.579 466.683 437.84 462.814 432.905C464.556 432.76 466.296 432.67 468.037 432.482C470.061 432.262 470.769 429.719 469.195 428.448C465.193 425.216 461.944 421.728 459.106 418.105C460.601 417.99 462.096 417.913 463.59 417.758C465.603 417.551 466.323 415.031 464.78 413.742C456.67 406.966 452.26 398.934 447.474 391.092C446.586 389.636 444.414 389.636 443.525 391.092C438.738 398.935 434.329 406.965 426.22 413.742C424.678 415.031 425.397 417.55 427.409 417.758C428.904 417.912 430.399 417.989 431.894 418.105C429.055 421.727 425.807 425.216 421.805 428.447C420.232 429.718 420.94 432.262 422.964 432.481C424.704 432.67 426.445 432.76 428.186 432.905C424.317 437.839 419.854 442.579 414.247 446.928C412.65 448.167 413.384 450.735 415.405 450.964C419.018 451.375 422.633 451.626 426.247 451.888C421.491 458.08 415.985 464.025 408.886 469.429C407.268 470.661 407.994 473.254 410.026 473.491C419.116 474.548 428.205 475.19 437.295 475.435C436.414 480.956 434.081 486.479 430.222 492H460.778C456.919 486.479 454.585 480.956 453.705 475.435C462.794 475.19 471.884 474.548 480.974 473.491C483.006 473.255 483.732 470.662 482.114 469.43L482.114 469.431Z" fill="#F9F4E1"/>
<path d="M498.445 472.839C493.997 469.448 490.545 465.718 487.565 461.833C489.83 461.668 492.095 461.511 494.36 461.253C495.626 461.109 496.085 459.498 495.085 458.72C491.571 455.991 488.775 453.017 486.35 449.921C487.441 449.83 488.532 449.773 489.623 449.655C490.891 449.518 491.335 447.922 490.349 447.124C487.841 445.096 485.805 442.908 484.026 440.635C484.963 440.562 485.9 440.514 486.836 440.417C488.098 440.287 488.549 438.706 487.582 437.897C482.5 433.645 479.736 428.606 476.737 423.685C476.18 422.772 474.819 422.772 474.262 423.685C471.263 428.606 468.5 433.645 463.418 437.897C462.451 438.706 462.902 440.287 464.163 440.417C465.1 440.513 466.037 440.562 466.973 440.634C465.195 442.907 463.159 445.096 460.651 447.124C459.665 447.921 460.109 449.517 461.377 449.655C462.468 449.773 463.559 449.83 464.65 449.921C462.225 453.017 459.429 455.991 455.915 458.719C454.914 459.497 455.374 461.108 456.64 461.252C458.905 461.51 461.17 461.667 463.435 461.832C460.455 465.717 457.004 469.447 452.555 472.838C451.541 473.611 451.996 475.238 453.269 475.386C458.966 476.05 464.662 476.453 470.358 476.606C469.806 480.071 468.344 483.536 465.926 487H485.074C482.656 483.536 481.194 480.071 480.642 476.606C486.338 476.453 492.034 476.05 497.731 475.386C499.004 475.238 499.459 473.611 498.445 472.838L498.445 472.839Z" fill="#402A22"/>
<line x1="387" y1="492.5" x2="501" y2="492.5" stroke="#402A22" stroke-width="11"/>
<path d="M345.075 88.0988C345.075 88.0988 343.401 88.0489 341.707 88.6681C340.865 88.811 340.013 89.2873 339.161 89.7647C338.827 89.7547 338.492 89.7448 338.156 89.7348C337.334 89.2074 336.512 88.68 335.68 88.4884C334.026 87.7694 332.353 87.7195 332.353 87.7195C332.353 87.7195 332.303 89.3934 332.922 91.0873C333.065 91.9293 333.541 92.7812 334.018 93.6331C334.008 93.9677 333.999 94.3022 333.988 94.6379C333.461 95.4599 332.934 96.2819 332.742 97.1139C332.023 98.7679 331.973 100.442 331.973 100.442C331.973 100.442 333.647 100.492 335.341 99.8725C336.183 99.7296 337.035 99.2533 337.887 98.7759C338.221 98.7858 338.556 98.7958 338.892 98.8058C339.714 99.3332 340.536 99.8605 341.368 100.052C343.022 100.771 344.696 100.821 344.696 100.821C344.696 100.821 344.745 99.1471 344.126 97.4533C343.983 96.6113 343.507 95.7594 343.03 94.9075C343.04 94.5729 343.05 94.2383 343.06 93.9027C343.587 93.0807 344.114 92.2587 344.306 91.4267C345.025 89.7727 345.075 88.0988 345.075 88.0988Z" fill="#F9F4E1"/>
<path d="M352.825 132.513C352.825 132.513 352.2 131.956 351.352 131.648C350.984 131.432 350.504 131.34 350.025 131.249C349.9 131.138 349.775 131.026 349.65 130.914C349.505 130.448 349.359 129.982 349.103 129.641C348.701 128.834 348.076 128.276 348.076 128.276C348.076 128.276 347.518 128.901 347.211 129.749C346.995 130.117 346.903 130.597 346.812 131.076C346.7 131.201 346.589 131.326 346.477 131.451C346.011 131.596 345.545 131.742 345.204 131.998C344.396 132.4 343.839 133.025 343.839 133.025C343.839 133.025 344.464 133.583 345.312 133.89C345.68 134.106 346.159 134.198 346.639 134.289C346.764 134.401 346.889 134.512 347.014 134.624C347.159 135.09 347.304 135.556 347.561 135.897C347.963 136.704 348.588 137.262 348.588 137.262C348.588 137.262 349.145 136.637 349.453 135.789C349.669 135.421 349.761 134.942 349.852 134.462C349.963 134.337 350.075 134.212 350.186 134.087C350.653 133.942 351.119 133.797 351.46 133.54C352.267 133.138 352.825 132.513 352.825 132.513Z" fill="#F9F4E1"/>
<circle cx="398.686" cy="93.2275" r="25.5" transform="rotate(-26.0675 398.686 93.2275)" fill="#F9F4E1"/>
<path d="M234.944 452.687C235.986 452.687 237.153 452.918 238.07 452.918C239.059 452.918 239.987 453.382 240.964 453.382C241.937 453.382 242.941 452.646 243.858 452.442C244.788 452.235 245.827 451.489 246.52 450.833C247.587 449.825 247.551 449.018 247.923 447.718C248.153 446.91 248.788 445.853 248.836 445.04C248.919 443.621 249.895 441.113 251.511 440.651C252.783 440.287 256.671 439.782 257.634 440.986C258.443 441.998 262.808 441.333 264.117 441.333C266.433 441.333 268.438 440.765 270.6 440.638C271.451 440.588 272.271 439.786 273.031 439.364C273.449 439.131 273.786 438.942 274.124 438.604C274.441 438.287 274.58 437.637 274.883 437.394C276.195 436.344 276.508 434.332 277.893 433.224C278.575 432.677 278.842 431.402 279.449 430.726C280.165 429.93 280.852 429.141 281.816 428.589C282.879 427.981 286.098 426.081 287.27 427.547C288.427 428.995 290.933 429.159 292.312 430.263C293.065 430.866 293.901 431.221 294.794 431.717C295.333 432.017 295.867 432.053 296.415 432.297C296.928 432.525 297.671 433.139 298.152 433.224C299.064 433.385 300.039 434.171 301.046 434.395C301.99 434.605 303.179 435.541 304.056 435.541C304.5 435.541 304.994 435.685 305.445 435.785C305.923 435.892 306.746 435.862 307.181 436.055C308.239 436.526 309.377 436.467 310.538 436.467H314.127C315.065 436.467 316.905 436.015 316.905 437.162M317.368 436.699C318.702 436.699 319.83 437.162 321.073 437.162C322.163 437.162 323.253 438.03 324.314 438.089C325.157 438.136 327.226 438.706 327.839 439.196C328.625 439.825 330.296 439.797 331.26 440.226C332.242 440.663 333.763 440.649 334.553 441.282C334.877 441.541 335.824 441.486 336.238 441.578C336.824 441.708 337.406 441.995 337.975 442.028C339.141 442.097 340.404 442.723 341.679 442.723C342.851 442.723 343.949 443.418 345.036 443.418C347.466 443.418 349.911 444.577 352.445 444.577C353.619 444.577 354.847 445.04 356.15 445.04C357.464 445.04 358.93 445.272 360.317 445.272C361.709 445.272 362.609 444.7 363.803 444.358C364.542 444.147 366.214 443.659 366.684 443.071C366.995 442.682 367.518 442.223 367.893 441.848C368.266 441.475 368.455 440.982 368.884 440.638C369.498 440.147 370.527 438.784 371.315 438.784C373.656 438.784 375.824 437.858 378.145 437.858C379.39 437.858 380.657 437.765 381.837 438.102C382.619 438.326 384.431 438.923 384.924 439.711C385.954 441.362 388.356 441.971 389.606 443.534C390.948 445.214 391.921 446.943 391.921 449.211V452.918C391.921 453.578 391.723 454.165 391.689 454.772C391.654 455.407 391.226 455.877 391.226 456.51C391.226 457.1 390.461 458.767 389.953 459.174C389.119 459.842 389.251 461.124 388.628 461.903C387.941 462.763 387.985 464.445 387.239 465.379C386.614 466.161 385.938 467.791 385.657 468.777C385.37 469.783 384.571 470.727 384.268 471.789C384.148 472.209 383.929 472.783 383.702 473.192C383.409 473.719 383.623 474.393 383.354 474.93C383.354 476.299 383.053 478.048 383.702 479.217C384.268 480.237 384.95 481.092 385.49 482.113C385.671 482.455 386.029 483.559 386.248 483.735C386.727 484.118 386.426 485.191 386.712 485.704C387.332 486.823 386.723 488.876 387.47 489.811C387.824 490.253 387.38 491.405 387.535 491.948C387.726 492.619 387.753 493.273 387.753 494.046C387.753 495.419 388.04 497.016 387.007 498.049C386.13 498.927 385.642 500.532 384.628 501.344C383.761 502.038 383.42 503.86 382.428 504.357C382.316 505.253 380.617 506.24 380.332 507.24C379.998 508.409 378.636 509.69 378.492 510.844C378.432 511.323 377.78 512.1 377.566 512.582C377.361 513.044 377.132 514.018 376.756 514.32C375.741 515.132 375.932 517.291 375.199 518.207C374.412 519.193 374.325 521.507 374.325 522.777V527.295C374.325 528.496 374.376 529.977 375.367 530.771C376.184 531.425 376.185 533.555 377.103 534.015C377.103 537.529 377.389 541.242 376.653 544.557C376.37 545.832 376.363 548.089 375.534 549.127C375.437 549.248 375.311 549.964 375.264 550.131C375.15 550.531 374.903 550.931 374.801 551.289C374.589 552.03 374.361 553.2 373.913 553.761C373.582 554.175 373.198 555.274 373.167 555.795C373.128 556.467 372.439 557.359 372.254 558.009C371.808 559.572 371.245 561.118 370.389 562.617C369.69 563.841 369.022 565.151 368.125 566.273C367.945 566.498 367.958 566.962 367.726 567.148C367.558 567.283 366.991 567.753 366.929 567.972C366.759 568.566 366.822 569.628 366.221 569.929M366.453 569.929C366.453 571.234 366.053 573.368 366.864 574.383C367.681 575.404 368.314 576.71 369 577.91C370.352 580.278 371.797 582.611 373.682 584.706C375.385 586.601 376.345 589.387 378.376 591.014C379.517 591.927 380.044 593.26 380.988 594.309C381.424 594.795 381.548 595.359 382.017 595.828C382.472 596.284 382.946 596.875 383.354 597.386C384.963 599.398 385.975 601.643 387.805 603.474C389.721 605.391 391.005 607.676 391.702 610.116C392.496 612.896 392.184 615.903 390.017 618.072C389.212 618.877 388.824 620.139 387.869 620.903C387.076 621.539 385.67 622.863 385.67 623.916V627.159C385.67 628.228 386.104 629.087 386.377 630.043C386.57 630.72 387.394 631.498 387.753 632.128C388.208 632.924 388.762 633.858 389.426 634.522L389.479 634.575C390.552 635.649 392.073 637.171 392.397 638.629C392.595 639.523 393.676 640.516 393.773 641.293C393.817 641.641 394.778 643.163 395.047 643.379C395.821 643.999 396.119 645.072 396.899 645.696C397.598 646.255 398.22 646.939 398.918 647.498C399.657 648.089 400.975 648.079 401.697 648.656C402.176 649.041 403.895 649.635 404.539 649.635C405.62 649.635 406.521 650.562 407.549 650.562C408.182 650.562 409.592 650.929 410.212 651.205C411.564 651.807 415.97 650.269 416.695 651.72H427.165C427.831 651.72 430.023 651.361 430.535 651.771C430.828 652.006 432.505 652.623 432.902 652.647C433.485 652.681 434.706 653.257 435.165 653.625C436.904 655.017 437.995 656.14 437.995 658.555C437.995 659.665 438.08 660.595 437.532 661.555C437.05 662.4 436.772 663.221 436.375 664.116C436.084 664.771 435.846 666.602 435.333 667.012C434.995 667.283 434.522 669.022 434.522 669.445C434.522 671.82 433.365 674.053 433.365 676.396V683M234.864 452.282C230.618 452.282 224.824 448.816 222.599 445.032C220.568 441.576 219.689 437.031 217.295 434.037C215.095 431.284 213.282 425.22 209.293 424.986C207.307 424.869 204.47 423.958 202.284 424.583C200.396 425.123 199.127 426.66 197.359 427.545C196.465 427.656 195.584 429.937 194.897 430.625C194.255 431.267 192.89 432.387 192.008 432.639C189.637 433.317 187.778 435.099 185.639 436.288C183.55 437.45 181.217 438.425 179.033 439.582C177.227 440.538 174.629 442.238 172.64 442.472C171.398 442.619 169.925 443.585 168.805 444.084C167.968 444.456 165.507 444.144 164.969 444.818C164.135 445.861 159.533 442.756 158.363 442.496C155.929 441.955 153.363 440.34 150.905 440.34C149.578 440.34 147.725 440 146.453 440.364C145.352 440.678 144.431 441.647 143.233 442.046C141.141 442.046 138.093 444.126 136.509 445.553C135.326 446.618 129.528 447.025 128.222 445.979C126.153 444.323 122.438 444.605 119.793 444.605C116.802 444.605 113.54 444.179 110.417 444.179C107.365 444.179 104.314 444.437 101.467 444.605C98.7016 444.768 95.8633 445.458 92.9427 445.458C91.3892 445.458 89.8051 445.367 88.2546 445.458C87.4658 445.504 87.6189 446.393 87.1892 446.738C86.649 447.17 86.1196 447.082 85.6028 447.496C84.871 448.082 81.7547 447.655 81.1041 447.069C80.253 446.303 79.8043 445.068 78.8785 444.605C77.6666 444.605 76.9611 443.752 75.8951 443.752C75.4742 443.752 73.1326 443.389 72.9118 443.112C72.495 442.591 66.7606 442.535 66.1875 442.994C64.8969 444.027 64.1117 445.765 62.8963 446.738C61.3925 447.942 59.3125 448.444 57.3559 448.444C53.3895 448.444 52.5282 441.422 50.1106 439.487C48.6993 438.357 48.458 435.554 47.4351 434.274C47.062 433.807 46.6053 431.805 46.4644 431.17C46.1878 429.924 45.4544 429.138 44.3571 428.492C42.7126 427.524 40.9496 425.863 39.0297 425.436C37.1873 425.026 35.1374 423.939 33.2761 423.706C31.3164 423.461 29.1292 422 27.0964 422C22.983 422 25.6846 423.819 23.9 426.052C22.9644 427.222 21.9506 429.503 21.769 430.957C21.6572 431.852 19.4097 435.156 18.5489 435.648C16.5823 436.773 14.7347 437.354 12.3928 437.354H6" stroke="#F9F4E1" stroke-width="25" stroke-linecap="round"/>
<path d="M234.944 452.687C235.986 452.687 237.153 452.918 238.07 452.918C239.059 452.918 239.987 453.382 240.964 453.382C241.937 453.382 242.941 452.646 243.858 452.442C244.788 452.235 245.827 451.489 246.52 450.833C247.587 449.825 247.551 449.018 247.923 447.718C248.153 446.91 248.788 445.853 248.836 445.04C248.919 443.621 249.895 441.113 251.511 440.651C252.783 440.287 256.671 439.782 257.634 440.986C258.443 441.998 262.808 441.333 264.117 441.333C266.433 441.333 268.438 440.765 270.6 440.638C271.451 440.588 272.271 439.786 273.031 439.364C273.449 439.131 273.786 438.942 274.124 438.604C274.441 438.287 274.58 437.637 274.883 437.394C276.195 436.344 276.508 434.332 277.893 433.224C278.575 432.677 278.842 431.402 279.449 430.726C280.165 429.93 280.852 429.141 281.816 428.589C282.879 427.981 286.098 426.081 287.27 427.547C288.427 428.995 290.933 429.159 292.312 430.263C293.065 430.866 293.901 431.221 294.794 431.717C295.333 432.017 295.867 432.053 296.415 432.297C296.928 432.525 297.671 433.139 298.152 433.224C299.064 433.385 300.039 434.171 301.046 434.395C301.99 434.605 303.179 435.541 304.056 435.541C304.5 435.541 304.994 435.685 305.445 435.785C305.923 435.892 306.746 435.862 307.181 436.055C308.239 436.526 309.377 436.467 310.538 436.467H314.127C315.065 436.467 316.905 436.015 316.905 437.162M317.368 436.699C318.702 436.699 319.83 437.162 321.073 437.162C322.163 437.162 323.253 438.03 324.314 438.089C325.157 438.136 327.226 438.706 327.839 439.196C328.625 439.825 330.296 439.797 331.26 440.226C332.242 440.663 333.763 440.649 334.553 441.282C334.877 441.541 335.824 441.486 336.238 441.578C336.824 441.708 337.406 441.995 337.975 442.028C339.141 442.097 340.404 442.723 341.679 442.723C342.851 442.723 343.949 443.418 345.036 443.418C347.466 443.418 349.911 444.577 352.445 444.577C353.619 444.577 354.847 445.04 356.15 445.04C357.464 445.04 358.93 445.272 360.317 445.272C361.709 445.272 362.609 444.7 363.803 444.358C364.542 444.147 366.214 443.659 366.684 443.071C366.995 442.682 367.518 442.223 367.893 441.848C368.266 441.475 368.455 440.982 368.884 440.638C369.498 440.147 370.527 438.784 371.315 438.784C373.656 438.784 375.824 437.858 378.145 437.858C379.39 437.858 380.657 437.765 381.837 438.102C382.619 438.326 384.431 438.923 384.924 439.711C385.954 441.362 388.356 441.971 389.606 443.534C390.948 445.214 391.921 446.943 391.921 449.211V452.918C391.921 453.578 391.723 454.165 391.689 454.772C391.654 455.407 391.226 455.877 391.226 456.51C391.226 457.1 390.461 458.767 389.953 459.174C389.119 459.842 389.251 461.124 388.628 461.903C387.941 462.763 387.985 464.445 387.239 465.379C386.614 466.161 385.938 467.791 385.657 468.777C385.37 469.783 384.571 470.727 384.268 471.789C384.148 472.209 383.929 472.783 383.702 473.192C383.409 473.719 383.623 474.393 383.354 474.93C383.354 476.299 383.053 478.048 383.702 479.217C384.268 480.237 384.95 481.092 385.49 482.113C385.671 482.455 386.029 483.559 386.248 483.735C386.727 484.118 386.426 485.191 386.712 485.704C387.332 486.823 386.723 488.876 387.47 489.811C387.824 490.253 387.38 491.405 387.535 491.948C387.726 492.619 387.753 493.273 387.753 494.046C387.753 495.419 388.04 497.016 387.007 498.049C386.13 498.927 385.642 500.532 384.628 501.344C383.761 502.038 383.42 503.86 382.428 504.357C382.316 505.253 380.617 506.24 380.332 507.24C379.998 508.409 378.636 509.69 378.492 510.844C378.432 511.323 377.78 512.1 377.566 512.582C377.361 513.044 377.132 514.018 376.756 514.32C375.741 515.132 375.932 517.291 375.199 518.207C374.412 519.193 374.325 521.507 374.325 522.777V527.295C374.325 528.496 374.376 529.977 375.367 530.771C376.184 531.425 376.185 533.555 377.103 534.015C377.103 537.529 377.389 541.242 376.653 544.557C376.37 545.832 376.363 548.089 375.534 549.127C375.437 549.248 375.311 549.964 375.264 550.131C375.15 550.531 374.903 550.931 374.801 551.289C374.589 552.03 374.361 553.2 373.913 553.761C373.582 554.175 373.198 555.274 373.167 555.795C373.128 556.467 372.439 557.359 372.254 558.009C371.808 559.572 371.245 561.118 370.389 562.617C369.69 563.841 369.022 565.151 368.125 566.273C367.945 566.498 367.958 566.962 367.726 567.148C367.558 567.283 366.991 567.753 366.929 567.972C366.759 568.566 366.822 569.628 366.221 569.929M366.453 569.929C366.453 571.234 366.053 573.368 366.864 574.383C367.681 575.404 368.314 576.71 369 577.91C370.352 580.278 371.797 582.611 373.682 584.706C375.385 586.601 376.345 589.387 378.376 591.014C379.517 591.927 380.044 593.26 380.988 594.309C381.424 594.795 381.548 595.359 382.017 595.828C382.472 596.284 382.946 596.875 383.354 597.386C384.963 599.398 385.975 601.643 387.805 603.474C389.721 605.391 391.005 607.676 391.702 610.116C392.496 612.896 392.184 615.903 390.017 618.072C389.212 618.877 388.824 620.139 387.869 620.903C387.076 621.539 385.67 622.863 385.67 623.916V627.159C385.67 628.228 386.104 629.087 386.377 630.043C386.57 630.72 387.394 631.498 387.753 632.128C388.208 632.924 388.762 633.858 389.426 634.522L389.479 634.575C390.552 635.649 392.073 637.171 392.397 638.629C392.595 639.523 393.676 640.516 393.773 641.293C393.817 641.641 394.778 643.163 395.047 643.379C395.821 643.999 396.119 645.072 396.899 645.696C397.598 646.255 398.22 646.939 398.918 647.498C399.657 648.089 400.975 648.079 401.697 648.656C402.176 649.041 403.895 649.635 404.539 649.635C405.62 649.635 406.521 650.562 407.549 650.562C408.182 650.562 409.592 650.929 410.212 651.205C411.564 651.807 415.97 650.269 416.695 651.72H427.165C427.831 651.72 430.023 651.361 430.535 651.771C430.828 652.006 432.505 652.623 432.902 652.647C433.485 652.681 434.706 653.257 435.165 653.625C436.904 655.017 437.995 656.14 437.995 658.555C437.995 659.665 438.08 660.595 437.532 661.555C437.05 662.4 436.772 663.221 436.375 664.116C436.084 664.771 435.846 666.602 435.333 667.012C434.995 667.283 434.522 669.022 434.522 669.445C434.522 671.82 433.365 674.053 433.365 676.396V683M234.864 452.282C230.618 452.282 224.824 448.816 222.599 445.032C220.568 441.576 219.689 437.031 217.295 434.037C215.095 431.284 213.282 425.22 209.293 424.986C207.307 424.869 204.47 423.958 202.284 424.583C200.396 425.123 199.127 426.66 197.359 427.545C196.465 427.656 195.584 429.937 194.897 430.625C194.255 431.267 192.89 432.387 192.008 432.639C189.637 433.317 187.778 435.099 185.639 436.288C183.55 437.45 181.217 438.425 179.033 439.582C177.227 440.538 174.629 442.238 172.64 442.472C171.398 442.619 169.925 443.585 168.805 444.084C167.968 444.456 165.507 444.144 164.969 444.818C164.135 445.861 159.533 442.756 158.363 442.496C155.929 441.955 153.363 440.34 150.905 440.34C149.578 440.34 147.725 440 146.453 440.364C145.352 440.678 144.431 441.647 143.233 442.046C141.141 442.046 138.093 444.126 136.509 445.553C135.326 446.618 129.528 447.025 128.222 445.979C126.153 444.323 122.438 444.605 119.793 444.605C116.802 444.605 113.54 444.179 110.417 444.179C107.365 444.179 104.314 444.437 101.467 444.605C98.7016 444.768 95.8633 445.458 92.9427 445.458C91.3892 445.458 89.8051 445.367 88.2546 445.458C87.4658 445.504 87.6189 446.393 87.1892 446.738C86.649 447.17 86.1196 447.082 85.6028 447.496C84.871 448.082 81.7547 447.655 81.1041 447.069C80.253 446.303 79.8043 445.068 78.8785 444.605C77.6666 444.605 76.9611 443.752 75.8951 443.752C75.4742 443.752 73.1326 443.389 72.9118 443.112C72.495 442.591 66.7606 442.535 66.1875 442.994C64.8969 444.027 64.1117 445.765 62.8963 446.738C61.3925 447.942 59.3125 448.444 57.3559 448.444C53.3895 448.444 52.5282 441.422 50.1106 439.487C48.6993 438.357 48.458 435.554 47.4351 434.274C47.062 433.807 46.6053 431.805 46.4644 431.17C46.1878 429.924 45.4544 429.138 44.3571 428.492C42.7126 427.524 40.9496 425.863 39.0297 425.436C37.1873 425.026 35.1374 423.939 33.2761 423.706C31.3164 423.461 29.1292 422 27.0964 422C22.983 422 25.6846 423.819 23.9 426.052C22.9644 427.222 21.9506 429.503 21.769 430.957C21.6572 431.852 19.4097 435.156 18.5489 435.648C16.5823 436.773 14.7347 437.354 12.3928 437.354H6" stroke="#402A22" stroke-width="13" stroke-linecap="round"/>
<path d="M94.5 191L62 382.5L126.5 374L184 365H234L263 374L266 379.5L274 392H290.5H313L325 386.5V376.5L334.5 370L368.5 365L444 370L523.5 379.5H530.5L497.5 191L482 189L480 181.5L456 177.5V171.5L419 163L383.5 160L348.5 163L316 171.5L295 191L285 177.5L253.5 163L192 160L138.5 171.5L135 177.5L114.5 181.5L110.5 187.5L94.5 191Z" fill="#C26A46"/>
<path d="M107.5 214.5L87 365L122.5 357.5L169.5 350.5L207.5 348L250 350.5L271.5 360.5L278 369.5L288.5 367.5H297.5H305H315L320.5 360.5L364 348L430.5 351L505 362.5L507.5 359L484 211.5L482 189L480 181.5L456 177.5V171.5L419 163L383.5 160L348.5 163L316 171.5L295 191L285 177.5L253.5 163L192 160L138.5 171.5L135 177.5L114.5 181.5L110.5 187.5L107.5 214.5Z" fill="#F9F4E1"/>
<path d="M461.833 173.226C466.771 174.101 471.615 175.089 476.497 175.778C481.118 176.43 484.341 178.499 485.31 183.492C488.403 184.088 491.478 184.666 494.552 185.262C495.763 185.504 497.011 185.635 498.167 186.045C501.092 187.069 502.918 189.119 503.477 192.193C504.39 197.336 505.303 202.479 506.178 207.64C509.141 224.968 512.104 242.296 515.029 259.624C517.824 276.113 520.619 292.603 523.376 309.092C526.693 328.954 529.991 348.834 533.289 368.715C533.829 371.995 534.426 375.274 534.891 378.572C535.637 383.863 532.488 387.366 527.196 386.845C521.812 386.323 516.445 385.447 511.079 384.758C498.633 383.137 486.205 381.497 473.758 379.913C462.355 378.46 450.915 377.23 439.531 375.572C415.197 372.032 390.75 370.243 366.173 371.379C355.59 371.864 345.212 373.671 335.262 377.528C334.461 377.845 333.678 378.18 332.914 378.534C332.672 378.646 332.449 378.832 332.076 379.093C332.449 386.453 328.051 390.72 322.015 393.813C316.686 396.552 310.966 397.875 305.059 398.415C295.24 399.309 285.476 399.16 276.011 395.9C274.223 395.285 272.452 394.558 270.757 393.701C264.701 390.608 260.379 386.304 260.938 378.758C256.354 376.652 251.621 375.292 246.796 374.211C238.038 372.255 229.169 371.118 220.207 371.193C207.761 371.323 195.295 371.435 182.849 372.031C175.75 372.367 168.67 373.559 161.608 374.453C147.373 376.261 133.137 378.105 118.901 379.95C105.132 381.739 91.3813 383.565 77.6098 385.353C73.7529 385.856 69.8961 386.453 66.0018 386.807C60.4493 387.328 57.2816 384.03 58.139 378.497C59.6483 368.734 61.3438 358.989 62.965 349.244C65.9275 331.431 68.89 313.618 71.8899 295.825C74.6102 279.615 77.3864 263.404 80.1255 247.196C82.6968 231.917 85.2496 216.638 87.8206 201.377C88.3236 198.377 88.864 195.377 89.367 192.396C90.0006 188.688 92.1619 186.452 95.8327 185.744C99.7455 184.98 103.677 184.291 107.664 183.545C107.869 183.061 108.093 182.651 108.205 182.204C109.136 178.682 111.503 176.763 115.005 176.13C120.241 175.18 125.477 174.267 130.768 173.316C130.955 172.944 131.16 172.627 131.271 172.292C132.352 168.956 134.737 167.205 138.072 166.497C143.084 165.435 148.097 164.261 153.127 163.273C162.816 161.336 172.505 159.379 182.231 157.647C186.517 156.883 190.914 156.361 195.274 156.286C207.534 156.1 219.812 155.839 232.073 156.286C244.743 156.771 257.171 159.193 269.133 163.553C279.902 167.484 289.367 173.204 295.907 182.968C296 183.117 296.205 183.192 296.354 183.303C296.429 183.266 296.541 183.266 296.578 183.21C303.435 173.074 313.31 167.093 324.564 163.087C336.47 158.858 348.786 156.454 361.4 156.174C372.617 155.914 383.852 155.951 395.069 156.249C405.149 156.51 415.118 158.149 425.011 160.18C434.495 162.118 443.961 164.224 453.463 166.087C457.655 166.907 460.748 168.733 461.81 173.204L461.833 173.226ZM291.516 353.623V350.027C291.441 299.252 291.385 248.46 291.255 197.685C291.255 196.324 290.882 194.852 290.286 193.623C286.317 185.294 279.908 179.462 271.561 175.642C260.977 170.798 249.798 168.357 238.32 167.034C226.004 165.618 213.632 165.73 201.279 166.252C196.341 166.457 191.366 166.568 186.503 167.37C176.292 169.047 166.138 171.096 155.983 173.071C151.157 174.022 146.35 175.139 141.375 176.22C134.444 229.285 127.55 282.204 120.619 335.32C121.383 335.32 121.849 335.376 122.277 335.32C133.568 333.755 144.859 332.153 156.151 330.588C170.461 328.594 184.733 326.358 199.211 325.911C213.95 325.464 228.688 324.961 243.313 327.402C252.536 328.929 261.536 331.165 270.051 335.153C278.566 339.159 285.926 344.506 290.584 352.965C290.695 353.17 290.975 353.282 291.497 353.636L291.516 353.623ZM472.677 335.513C465.615 282.094 458.609 229.196 451.603 176.17C446.461 175.071 441.542 174.027 436.641 172.965C420.096 169.425 403.494 166.258 386.462 166.071C372.674 165.922 358.886 165.643 345.23 168.14C336.119 169.798 327.306 172.351 319.052 176.673C312.027 180.362 306.624 185.636 302.897 192.679C301.835 194.672 301.369 196.647 301.369 198.921C301.444 249.696 301.481 300.488 301.518 351.263C301.518 351.86 301.63 352.456 301.705 353.201C302.096 352.94 302.301 352.866 302.375 352.717C307.313 344.22 314.822 338.761 323.579 334.792C334.349 329.929 345.752 327.488 357.434 326.296C369.378 325.066 381.377 325.532 393.339 325.979C403.997 326.37 414.562 327.656 425.107 329.091C437.163 330.73 449.218 332.351 461.273 333.972C464.925 334.457 468.577 334.941 472.676 335.481L472.677 335.513ZM283.765 362.251C281.808 357.145 278.808 353.177 274.84 349.935C271.355 347.084 267.424 344.96 263.269 343.283C251.661 338.606 239.513 336.464 227.104 336.017C208.732 335.346 190.416 335.905 172.174 338.644C158.461 340.712 144.691 342.501 130.942 344.401C126.322 345.035 121.719 345.854 117.099 346.208C112.273 346.581 109.236 343.059 109.851 338.252C111.677 324.11 113.521 309.968 115.385 295.844C117.769 277.658 120.192 259.473 122.577 241.284C124.645 225.54 126.694 209.814 128.744 194.07C129.173 190.809 129.508 187.53 129.955 183.785C125.707 184.549 121.85 185.238 117.882 185.946C108.994 242.851 100.143 299.525 91.2186 356.546C92.4856 356.415 93.3986 356.359 94.3115 356.229C100.33 355.391 106.348 354.515 112.385 353.695C124.347 352.074 136.309 350.453 148.271 348.888C159.954 347.36 171.617 345.571 183.337 344.453C200.777 342.795 218.292 342.59 235.767 344.006C244.133 344.677 252.331 346.335 260.231 349.223C267.721 351.944 274.69 355.577 279.907 361.856C281.044 363.216 282.124 362.881 283.727 362.266L283.765 362.251ZM462.95 183.789C463.062 184.813 463.081 185.279 463.155 185.745C464.59 196.682 466.025 207.601 467.478 218.538C469.043 230.314 470.627 242.089 472.173 253.865C473.831 266.386 475.49 278.926 477.148 291.447C478.583 302.272 480.055 313.117 481.489 323.942C482.16 328.935 482.943 333.91 483.371 338.923C483.763 343.376 480.763 346.357 476.291 346.245C474.502 346.208 472.695 345.873 470.906 345.649C458.944 344.047 446.982 342.407 435.02 340.804C425.592 339.556 416.183 338.214 406.736 337.171C394.625 335.829 382.44 335.755 370.273 335.811C359.764 335.848 349.423 337.19 339.287 339.966C331.629 342.071 324.306 344.922 318.028 349.953C313.966 353.213 310.873 357.201 308.935 362.138C310.426 363.051 311.562 363.238 312.773 361.822C317.375 356.381 323.319 352.878 329.822 350.251C338.337 346.785 347.262 344.885 356.373 344.047C372.789 342.537 389.278 342.705 405.655 344.214C422.591 345.761 439.435 348.257 456.295 350.437C469.859 352.189 483.424 354.071 496.99 355.878C498.462 356.083 499.934 356.214 501.835 356.419C492.929 299.442 484.078 242.78 475.228 185.99C471.129 185.263 467.234 184.574 462.93 183.81L462.95 183.789ZM99.2646 195.453C89.1099 255.8 78.9925 315.837 68.8378 376.153C69.8067 376.078 70.3657 376.041 70.906 375.985C75.9927 375.314 81.0794 374.643 86.1661 373.973C98.6124 372.333 111.04 370.693 123.487 369.072C134.704 367.6 145.921 366.11 157.137 364.731C166.099 363.632 175.062 362.271 184.061 361.787C196.395 361.135 208.786 360.986 221.139 361.079C235.971 361.191 250.504 363.296 264.275 369.24C264.871 369.501 265.803 369.501 266.343 369.221C267.741 368.476 269.008 367.488 270.424 366.519C267.666 363.855 264.536 362.066 261.238 360.576C253.264 356.98 244.805 355.247 236.178 354.278C221.365 352.601 206.515 353.16 191.722 354.073C181.213 354.725 170.723 356.197 160.271 357.576C136.608 360.687 112.981 363.967 89.3382 367.172C83.2454 368.01 79.6119 364.302 80.5623 358.247C82.5933 345.297 84.6056 332.329 86.6177 319.38C89.7293 299.275 92.8222 279.189 95.9711 259.084C99.2691 238.048 102.604 217.029 105.902 195.994C105.977 195.491 105.828 194.951 105.772 194.243C103.536 194.653 101.486 195.025 99.2317 195.454L99.2646 195.453ZM486.915 194.279C489.505 210.768 492.002 226.718 494.517 242.669C497.256 260.128 500.032 277.587 502.753 295.043C505.585 313.266 508.398 331.47 511.193 349.69C511.715 353.063 512.33 356.454 512.59 359.845C512.907 364.13 509.684 367.279 505.398 367.242C504.727 367.242 504.075 367.13 503.423 367.037C491.275 365.397 479.126 363.758 466.978 362.118C456.153 360.665 445.308 359.211 434.483 357.814C426.285 356.752 418.105 355.429 409.869 354.795C399.454 353.994 388.982 353.696 378.529 353.342C369.679 353.025 360.847 353.417 352.072 354.777C344.637 355.932 337.352 357.684 330.532 361C327.626 362.416 324.849 364.056 322.446 366.459C322.986 366.832 323.508 367.074 323.88 367.465C326.135 369.757 328.371 369.422 331.222 368.248C343.426 363.236 356.301 361.484 369.381 361.018C394.46 360.124 419.338 362.304 444.133 365.77C455.425 367.353 466.753 368.676 478.063 370.148C489.186 371.583 500.31 373.036 511.415 374.49C515.533 375.03 519.651 375.57 524.253 376.185C514.191 315.663 504.018 255.598 493.677 195.505C491.366 195.077 489.354 194.704 486.932 194.257L486.915 194.279ZM296.246 388.748C301.854 388.599 307.276 388.301 312.493 386.68C314.916 385.934 317.338 384.928 319.443 383.531C322.182 381.705 322.145 378.891 319.499 376.916C317.934 375.742 316.071 374.829 314.226 374.214C307.388 371.923 300.307 371.233 293.134 371.606C288.197 371.867 283.259 372.444 278.619 374.233C276.7 374.978 274.781 375.966 273.197 377.251C270.905 379.077 270.961 381.5 273.272 383.27C274.818 384.462 276.644 385.413 278.507 386.065C284.302 388.133 290.357 388.617 296.283 388.748H296.246Z" fill="#402A22"/>
<path d="M274.865 249.131C274.269 248.926 273.449 248.683 272.648 248.367C251.537 240.057 229.512 237.206 206.966 237.541C187.998 237.821 169.515 240.746 151.627 247.193C148.981 248.143 147.453 247.659 146.82 245.851C146.186 244.063 147.118 242.684 149.671 241.734C161.204 237.448 173.11 234.635 185.314 233.144C198.86 231.486 212.425 231.132 226.026 232.12C242.907 233.349 259.303 236.796 275.044 243.094C275.752 243.373 276.479 243.672 277.075 244.119C278.175 244.939 278.529 246.075 278.026 247.417C277.56 248.628 276.442 249.28 274.858 249.15L274.865 249.131Z" fill="#402A22"/>
<path d="M184.109 205.458C183.737 203.67 183.364 201.955 182.954 199.962C184.407 199.701 186.047 199.328 187.705 199.123C199.723 197.726 211.76 197.409 223.852 198.099C235.554 198.769 247.106 200.316 258.397 203.502C263.875 205.049 269.222 206.986 274.626 208.775C275.334 209.017 276.06 209.316 276.694 209.707C278.147 210.583 278.632 211.943 278.054 213.34C277.514 214.663 276.414 215.241 274.793 214.943C274.048 214.812 273.34 214.514 272.632 214.253C250.646 205.719 227.783 202.999 204.379 203.875C197.839 204.117 191.317 204.956 184.796 205.515C184.535 205.533 184.274 205.477 184.106 205.459L184.109 205.458Z" fill="#402A22"/>
<path d="M222.376 299.871V305.591C221.127 305.591 219.637 305.647 218.165 305.572C192.396 304.268 167.357 307.771 143.226 317.124C140.636 318.13 139.089 317.72 138.381 315.95C137.673 314.18 138.549 312.727 141.027 311.702C151.778 307.249 162.976 304.324 174.416 302.293C188.409 299.796 202.532 298.995 216.729 299.46C218.704 299.535 220.66 299.721 222.375 299.852L222.376 299.871Z" fill="#402A22"/>
<path d="M228.879 215.543C228.655 217.518 228.469 219.176 228.245 221.17C227.519 221.17 226.438 221.188 225.357 221.17C219.19 221.002 213.023 220.611 206.855 220.685C188.987 220.89 171.528 223.759 154.533 229.405C153.807 229.647 153.099 229.964 152.372 230.095C150.919 230.374 149.67 229.648 149.186 228.325C148.702 227.002 149.074 225.846 150.173 225.045C150.844 224.561 151.701 224.281 152.503 224.002C163.831 219.977 175.495 217.536 187.401 216.064C198.841 214.667 210.319 214.518 221.815 214.984C224.182 215.077 226.529 215.356 228.858 215.543L228.879 215.543Z" fill="#402A22"/>
<path d="M207.863 265.571C208.05 267.714 208.199 269.447 208.366 271.254C204.547 271.44 200.578 271.608 196.609 271.85C179.598 272.875 163.108 276.341 147.141 282.284C146.694 282.452 146.266 282.657 145.8 282.75C144.328 283.048 143.135 282.415 142.558 281.073C141.999 279.75 142.334 278.595 143.415 277.757C144.067 277.254 144.905 276.918 145.688 276.62C158.898 271.571 172.556 268.31 186.606 266.857C193.034 266.186 199.5 265.962 205.946 265.553C206.598 265.515 207.251 265.553 207.847 265.553L207.863 265.571Z" fill="#402A22"/>
<path d="M200.315 282.727C200.483 284.814 200.613 286.565 200.744 288.279C196.067 288.708 191.241 289.081 186.434 289.602C172.683 291.13 159.342 294.447 146.375 299.235C145.48 299.57 144.586 299.906 143.673 300.129C142.294 300.465 141.232 299.887 140.58 298.676C139.965 297.521 140.319 295.881 141.437 295.099C142.126 294.614 142.946 294.297 143.729 293.981C155.188 289.509 167.019 286.379 179.186 284.627C185.298 283.752 191.465 283.342 197.614 282.745C198.545 282.652 199.477 282.727 200.315 282.727Z" fill="#402A22"/>
<path d="M218.536 186.848C218.722 184.984 218.909 183.233 219.095 181.37C221.536 181.37 224.275 181.183 226.977 181.407C240.839 182.525 254.46 184.891 267.672 189.326C270.187 190.164 272.665 191.115 275.162 192.046C275.87 192.307 276.615 192.587 277.193 193.034C278.237 193.872 278.665 195.009 278.106 196.332C277.566 197.655 276.504 198.195 275.144 198.009C274.305 197.897 273.485 197.58 272.703 197.282C261.095 192.959 249.151 189.922 236.854 188.431C231.674 187.798 226.457 187.463 221.258 186.997C220.327 186.922 219.395 186.885 218.557 186.848L218.536 186.848Z" fill="#402A22"/>
<path d="M228.839 288.971C229.025 287.183 229.212 285.431 229.435 283.307C231.727 283.549 234.335 283.717 236.925 284.09C250.117 286.083 262.937 289.512 275.234 294.729C275.923 295.027 276.687 295.307 277.227 295.791C278.234 296.667 278.588 297.822 277.991 299.126C277.432 300.319 276.426 300.84 275.215 300.654C274.19 300.505 273.203 300.114 272.234 299.722C261.707 295.53 250.881 292.381 239.683 290.556C236.031 289.959 232.36 289.475 228.858 288.972L228.839 288.971Z" fill="#402A22"/>
<path d="M232.178 300.427C236.781 301.21 241.457 301.899 246.097 302.812C255.991 304.75 265.568 307.787 274.809 311.83C275.592 312.166 276.393 312.501 277.083 312.985C278.275 313.843 278.592 315.315 277.958 316.526C277.306 317.774 276.207 318.24 274.865 317.942C273.952 317.737 273.058 317.345 272.182 316.991C259.773 311.793 246.898 308.346 233.538 306.706C232.7 306.613 231.899 306.352 231.34 306.24C231.619 304.359 231.862 302.626 232.197 300.427L232.178 300.427Z" fill="#402A22"/>
<path d="M234.153 249.973C233.874 251.874 233.613 253.607 233.315 255.712C219.061 254.11 204.416 253.886 189.754 255.526C189.53 253.588 189.344 251.855 189.139 250.048C193.834 248.11 220.031 247.999 234.155 249.955L234.153 249.973Z" fill="#402A22"/>
<path d="M259.51 271.943C258.82 273.806 258.224 275.427 257.479 277.402C244.38 273.825 230.816 271.943 217.213 271.402C217.418 269.464 217.586 267.732 217.809 265.663C231.858 266.017 245.851 268.011 259.49 271.942L259.51 271.943Z" fill="#402A22"/>
<path d="M237.469 222.006C237.711 221.074 238.009 220.273 238.121 219.435C238.233 218.615 238.139 217.758 238.139 216.528C240.263 216.789 242.294 216.975 244.288 217.311C254.89 219.137 265.194 222.062 275.181 226.086C275.796 226.329 276.448 226.571 276.97 226.943C278.069 227.726 278.535 228.844 278.106 230.185C277.678 231.527 276.467 232.272 274.976 232.067C274.417 231.993 273.877 231.769 273.355 231.564C261.989 227.13 250.251 224.055 238.177 222.304C237.991 222.285 237.841 222.155 237.45 221.987L237.469 222.006Z" fill="#402A22"/>
<path d="M179.597 251.015C179.989 253.027 180.305 254.741 180.66 256.586C177.418 257.22 173.933 257.685 170.561 258.598C163.611 260.462 156.736 262.567 149.823 264.579C149.189 264.766 148.575 265.064 147.922 265.176C146.357 265.437 145.277 264.822 144.736 263.462C144.233 262.176 144.662 260.853 145.91 260.014C146.301 259.754 146.749 259.567 147.177 259.4C157.462 255.356 168.102 252.729 179.001 250.978C179.262 250.94 179.56 251.033 179.597 251.033L179.597 251.015Z" fill="#402A22"/>
<path d="M243.546 251.166C247.701 252.079 251.912 252.75 255.993 253.942C262.365 255.824 268.625 258.041 274.942 260.147C275.65 260.389 276.377 260.706 276.992 261.134C278.24 262.01 278.613 263.389 278.054 264.637C277.476 265.923 276.246 266.556 274.756 266.202C273.936 266.016 273.135 265.643 272.352 265.326C262.943 261.674 253.254 258.936 243.304 257.166C243.025 257.11 242.764 257.016 242.503 256.942C242.82 255.19 243.136 253.476 243.565 251.166L243.546 251.166Z" fill="#402A22"/>
<path d="M187.015 182.781C187.462 184.719 187.854 186.34 188.282 188.222C186.698 188.502 184.872 188.856 183.028 189.117C174.848 190.29 166.836 192.247 158.917 194.613C158.191 194.837 157.464 195.116 156.719 195.228C155.228 195.452 154.017 194.706 153.57 193.402C153.123 192.079 153.607 190.719 154.837 189.955C155.228 189.713 155.694 189.526 156.141 189.377C166.091 186.173 176.264 183.881 186.661 182.707C186.829 182.688 187.015 182.782 186.978 182.782L187.015 182.781Z" fill="#402A22"/>
<path d="M173.838 201.623C174.117 203.56 174.341 205.219 174.62 207.1C173.95 207.268 173.148 207.473 172.347 207.678C167.037 209.15 161.745 210.622 156.435 212.094C155.802 212.261 155.168 212.56 154.516 212.597C153.137 212.69 152.131 212.075 151.647 210.734C151.162 209.392 151.572 208.311 152.616 207.454C152.97 207.156 153.435 206.97 153.883 206.839C160.292 205.088 166.702 203.355 173.111 201.641C173.372 201.566 173.652 201.641 173.838 201.641L173.838 201.623Z" fill="#402A22"/>
<path d="M197.091 187.201V181.891C198.731 181.239 205.476 180.773 209.109 181.109C209.221 182.916 209.351 184.723 209.482 186.773C205.494 186.903 201.321 187.052 197.072 187.201L197.091 187.201Z" fill="#402A22"/>
<path d="M266.351 280.25C267.133 278.331 267.748 276.785 268.531 274.865C271.139 275.909 273.953 276.915 276.655 278.163C278.182 278.871 278.592 280.381 278.015 281.778C277.437 283.176 276.133 283.884 274.493 283.343C271.717 282.412 269.015 281.294 266.351 280.269L266.351 280.25Z" fill="#402A22"/>
<path d="M219.788 282.6V288.245H210.043V282.6H219.788Z" fill="#402A22"/>
<path d="M383.881 305.237C361.411 305.2 341.493 308.591 322.413 316.416C321.183 316.919 319.953 317.422 318.686 317.832C317.103 318.335 315.631 317.739 315.09 316.453C314.531 315.149 315.016 313.528 316.32 312.727C317.121 312.224 318.016 311.889 318.891 311.516C334.431 304.976 350.604 301.026 367.429 299.852C394.987 297.933 421.854 301.287 447.997 310.305C448.891 310.621 449.767 310.975 450.661 311.311C454.481 312.764 455.524 313.975 454.742 315.988C453.997 317.907 452.487 318.019 448.78 316.789C443.73 315.112 438.7 313.416 433.576 312.019C417.552 307.659 399.422 305.33 383.921 305.218L383.881 305.237Z" fill="#402A22"/>
<path d="M374.866 180.865C398.044 181.145 417.254 183.269 435.889 189.25C436.522 189.455 437.174 189.623 437.771 189.902C439.261 190.629 439.876 192.008 439.448 193.424C439.038 194.765 437.584 195.604 436.057 195.324C435.311 195.194 434.585 194.914 433.858 194.709C411.108 187.909 387.856 185.878 364.225 187.405C348.946 188.393 334.153 191.579 319.897 197.169C319.282 197.411 318.649 197.672 318.015 197.802C316.524 198.082 315.332 197.411 314.81 196.069C314.289 194.728 314.717 193.61 315.798 192.79C316.469 192.287 317.288 191.952 318.071 191.653C330.052 186.884 342.442 183.716 355.261 182.393C363.012 181.611 370.782 181.182 374.862 180.865L374.866 180.865Z" fill="#402A22"/>
<path d="M413.419 284.984C413.102 286.885 412.823 288.525 412.506 290.5C409.86 290.202 406.898 289.885 403.935 289.549C375.148 286.307 347.05 288.674 320.033 299.909C319.418 300.17 318.803 300.431 318.151 300.561C316.716 300.84 315.617 300.263 315.077 299.07C314.536 297.859 314.872 296.276 316.008 295.512C316.791 294.99 317.685 294.636 318.561 294.282C332.498 288.431 347.012 284.91 362.031 283.344C378.856 281.574 395.606 282.245 412.321 284.686C412.694 284.742 413.048 284.891 413.421 285.003L413.419 284.984Z" fill="#402A22"/>
<path d="M376.038 237.508V231.806C376.336 231.75 376.783 231.583 377.212 231.583C399.142 231.415 420.646 233.968 441.478 241.197C442.559 241.57 443.658 241.924 444.646 242.464C445.988 243.191 446.491 244.57 446.062 245.837C445.578 247.253 444.273 247.961 442.652 247.663C442.093 247.57 441.553 247.383 441.013 247.197C421.057 240.135 400.413 237.508 379.338 237.489H376.058L376.038 237.508Z" fill="#402A22"/>
<path d="M385.002 197.969V203.634H382.021C363.389 203.522 345.054 205.516 327.294 211.534C324.779 212.391 322.301 213.36 319.804 214.273C319.189 214.496 318.556 214.795 317.922 214.888C316.562 215.111 315.5 214.608 314.904 213.323C314.289 212.018 314.643 210.863 315.667 209.987C316.301 209.447 317.139 209.112 317.922 208.795C329.418 204.118 341.324 201.1 353.622 199.442C363.161 198.156 372.72 197.653 382.334 197.839C383.266 197.858 384.179 197.932 384.998 197.97L385.002 197.969Z" fill="#402A22"/>
<path d="M383.921 271.271C384.163 269.408 384.368 267.768 384.61 265.812C384.853 265.775 385.467 265.607 386.064 265.626C406.932 266.073 427.295 269.352 446.936 276.619C447.737 276.917 448.557 277.215 449.265 277.662C450.569 278.482 450.997 279.823 450.476 281.09C449.917 282.432 448.743 283.103 447.252 282.823C446.507 282.674 445.799 282.376 445.091 282.115C429.086 276.283 412.521 273.116 395.548 271.96C391.653 271.7 387.778 271.495 383.921 271.271Z" fill="#402A22"/>
<path d="M374.457 265.718C374.68 267.675 374.867 269.426 375.09 271.326C372.78 271.513 370.264 271.736 367.749 271.904C351.427 272.985 335.683 276.618 320.459 282.599C319.751 282.878 319.062 283.214 318.317 283.381C316.826 283.717 315.522 283.046 315.037 281.798C314.571 280.549 315 279.04 316.118 278.276C316.658 277.903 317.292 277.643 317.888 277.382C331.043 271.978 344.7 268.476 358.822 266.873C363.256 266.37 367.709 266.09 372.162 265.736C373.001 265.662 373.839 265.718 374.417 265.718L374.457 265.718Z" fill="#402A22"/>
<path d="M366.483 232.198C366.651 234.079 366.8 235.831 366.986 237.787C364.191 238.085 361.098 238.421 358.005 238.756C344.907 240.172 332.292 243.489 320.032 248.296C319.511 248.501 318.989 248.743 318.43 248.892C316.958 249.283 315.654 248.762 315.058 247.569C314.405 246.283 314.815 244.681 316.082 243.805C316.623 243.433 317.256 243.19 317.871 242.948C329.889 238.048 342.335 234.806 355.192 233.203C358.676 232.775 362.179 232.458 365.663 232.123C366.018 232.085 366.39 232.216 366.483 232.216L366.483 232.198Z" fill="#402A22"/>
<path d="M404.547 249.882C404.305 251.894 404.081 253.553 403.857 255.453C396.423 255.099 388.784 254.466 381.144 254.447C373.468 254.428 365.791 255.006 358.227 255.323C358.003 253.609 357.779 251.876 357.519 249.882C373.132 247.87 388.802 248.205 404.546 249.863L404.547 249.882Z" fill="#402A22"/>
<path d="M363.629 221.187C363.703 220.05 363.871 219.119 363.778 218.187C363.685 217.367 363.312 216.566 362.958 215.411C377.454 214.2 391.745 214.535 406.185 216.398C405.85 217.609 405.477 218.504 405.384 219.398C405.291 220.199 405.477 221.038 405.552 222.119C391.578 220.591 377.659 220.05 363.648 221.187H363.629Z" fill="#402A22"/>
<path d="M353.755 216.544C354.016 218.445 354.24 220.178 354.482 222.041C351.277 222.637 347.942 223.252 344.606 223.904C336.184 225.525 328.061 228.096 320.086 231.208C319.471 231.45 318.856 231.748 318.223 231.916C316.769 232.289 315.54 231.674 314.925 230.37C314.31 229.065 314.683 227.929 315.689 227.034C316.173 226.606 316.807 226.326 317.422 226.084C328.433 221.519 339.874 218.445 351.649 216.693C352.376 216.582 353.121 216.6 353.755 216.563L353.755 216.544Z" fill="#402A22"/>
<path d="M412.97 256.699C413.324 254.743 413.641 253.01 414.013 250.886C419.268 252.022 424.653 253.01 429.944 254.407C434.993 255.73 439.931 257.463 444.887 259.047C445.689 259.308 446.508 259.662 447.198 260.127C448.316 260.91 448.782 262.028 448.26 263.369C447.757 264.655 446.769 265.326 445.372 265.195C444.813 265.14 444.254 264.972 443.732 264.786C433.969 261.245 423.982 258.618 413.715 256.997C413.454 256.96 413.193 256.792 412.951 256.699H412.97Z" fill="#402A22"/>
<path d="M347.999 251.516C348.409 253.454 348.744 255.075 349.154 256.975C346.937 257.478 344.459 257.869 342.074 258.577C334.807 260.757 327.597 263.068 320.367 265.341C319.734 265.546 319.138 265.863 318.504 266.03C317.051 266.44 315.709 265.881 315.113 264.708C314.479 263.422 314.908 261.782 316.138 260.925C316.529 260.664 316.976 260.459 317.405 260.292C327.001 256.342 336.913 253.472 347.086 251.516C347.44 251.441 347.831 251.516 347.999 251.516Z" fill="#402A22"/>
<path d="M421.599 292.008C422.008 290.108 422.381 288.412 422.791 286.456C425.4 287.015 428.195 287.443 430.878 288.226C436.784 289.959 442.635 291.878 448.504 293.741C449.231 293.965 449.92 294.263 450.61 294.598C452.454 295.492 453.162 296.853 452.603 298.436C452.063 299.983 450.572 300.598 448.597 299.964C446.529 299.293 444.535 298.362 442.43 297.766C436.151 295.977 429.834 294.3 423.518 292.567C422.81 292.381 422.102 292.157 421.58 291.99L421.599 292.008Z" fill="#402A22"/>
<path d="M414.385 223.365C414.757 221.558 415.13 219.844 415.54 217.906C415.819 217.906 416.472 217.794 417.086 217.925C425.005 219.471 432.812 221.428 440.414 224.111C441.048 224.334 441.681 224.539 442.24 224.875C443.545 225.638 444.066 226.999 443.638 228.247C443.153 229.644 441.793 230.427 440.265 230.166C439.986 230.11 439.725 229.998 439.464 229.905C431.638 227.241 423.664 225.228 415.559 223.645C415.111 223.552 414.664 223.421 414.385 223.365Z" fill="#402A22"/>
<path d="M419.469 201.809C419.916 201.847 420.568 201.809 421.183 201.977C426.847 203.505 432.53 205.07 438.176 206.654C438.902 206.859 439.629 207.138 440.262 207.548C441.436 208.312 441.827 209.579 441.362 210.772C440.859 212.057 439.908 212.728 438.511 212.672C438.138 212.653 437.766 212.579 437.393 212.467C431.188 210.734 424.984 208.983 418.798 207.231C419.003 205.573 419.226 203.803 419.487 201.809L419.469 201.809Z" fill="#402A22"/>
<path d="M394.244 204.099C394.43 202.161 394.598 200.41 394.803 198.248C399.964 198.807 405.349 199.403 410.603 199.981C410.1 202.068 409.672 203.838 409.206 205.794C404.287 205.235 399.145 204.658 394.263 204.099L394.244 204.099Z" fill="#402A22"/>
</g>
</g>
</svg>
